<svg width="232" height="232" viewBox="0 0 232 232" fill="none" xmlns="http://www.w3.org/2000/svg">
<path d="M121.724 211.551L205.102 124.903H38.3475L121.724 211.551Z" fill="#C4C4C4"/>
<path d="M133.5 32L215 120.5H47L133.5 32Z" fill="white"/>
<path d="M37.9387 128.806L35.1103 125.978L32.3034 128.785L35.0888 131.613L37.9387 128.806ZM150.573 21.8284C152.135 20.2663 152.135 17.7337 150.573 16.1716C149.011 14.6095 146.479 14.6095 144.916 16.1716L150.573 21.8284ZM37.9387 128.806C35.0888 131.613 35.089 131.613 35.0894 131.614C35.0898 131.614 35.0905 131.615 35.0913 131.615C35.0929 131.617 35.0954 131.62 35.0987 131.623C35.1053 131.63 35.1151 131.64 35.1282 131.653C35.1543 131.679 35.1932 131.719 35.2447 131.771C35.3476 131.876 35.5005 132.031 35.7005 132.234C36.1005 132.64 36.6889 133.237 37.4427 134.002C38.9505 135.532 41.1199 137.733 43.7671 140.416C49.0615 145.784 56.2672 153.084 63.9124 160.814C79.189 176.259 96.2605 193.462 103.316 200.36L108.909 194.64C101.913 187.8 84.8976 170.655 69.6003 155.188C61.9584 147.462 54.7554 140.164 49.4627 134.799C46.8164 132.116 44.6477 129.916 43.1407 128.387C42.3872 127.622 41.7991 127.025 41.3995 126.619C41.1996 126.417 41.0469 126.262 40.9441 126.157C40.8927 126.105 40.8539 126.066 40.8278 126.039C40.8148 126.026 40.805 126.016 40.7985 126.009C40.7952 126.006 40.7927 126.004 40.7911 126.002C40.7903 126.001 40.7897 126 40.7893 126C40.7889 126 40.7887 125.999 37.9387 128.806ZM103.316 200.36C106.818 203.785 109.775 206.513 112.464 208.353C115.214 210.235 118.06 211.456 121.291 211.333C124.418 211.214 127.252 209.852 130.022 208.059C132.79 206.265 135.996 203.695 139.835 200.623L134.838 194.377C130.872 197.549 128.027 199.819 125.673 201.344C123.32 202.868 121.959 203.302 120.987 203.339C120.119 203.372 118.966 203.109 116.983 201.752C114.939 200.353 112.432 198.085 108.909 194.64L103.316 200.36ZM139.835 200.623C147.871 194.195 161.449 180.734 174.482 167.378C187.564 153.97 200.374 140.376 206.832 133.66L201.066 128.115C194.513 134.93 181.824 148.397 168.756 161.791C155.637 175.235 142.415 188.315 134.838 194.377L139.835 200.623ZM144.916 16.1716L130.345 30.743L136.002 36.3999L150.573 21.8284L144.916 16.1716ZM206.777 101.519L136.002 30.743L130.345 36.3999L201.121 107.175L206.777 101.519ZM201.121 107.175C204.443 110.498 206.687 112.751 208.139 114.573C209.6 116.406 209.707 117.15 209.707 117.422C209.707 117.716 209.581 118.501 208.101 120.417C206.639 122.31 204.384 124.664 201.066 128.115L206.832 133.66C210.019 130.346 212.642 127.626 214.433 125.307C216.206 123.011 217.707 120.446 217.707 117.422C217.707 114.377 216.187 111.836 214.396 109.587C212.595 107.327 209.96 104.701 206.777 101.519L201.121 107.175ZM210.714 118.041H45.2244V126.041H210.714V118.041ZM130.345 30.743L35.1103 125.978L40.7671 131.635L136.002 36.3999L130.345 30.743Z" fill="black"/>
<path d="M45.2245 198.02C45.2245 206.643 38.2346 213.633 29.6122 213.633C20.9898 213.633 14 206.643 14 198.02C14 189.398 20.9898 182.408 29.6122 182.408C38.2346 182.408 45.2245 189.398 45.2245 198.02Z" fill="#C4C4C4"/>
<path d="M30.1327 164.714L43.1429 190.214L45.2245 196.98H14L16.0816 190.214L30.1327 164.714Z" fill="#C4C4C4"/>
</svg>
