<svg width="232" height="232" viewBox="0 0 232 232" fill="none" xmlns="http://www.w3.org/2000/svg">
<rect x="50.4211" y="40.8421" width="132.421" height="173.579" rx="5.36842" fill="white" stroke="black" stroke-width="7.15789" stroke-linejoin="round"/>
<line x1="40.5789" y1="40.8421" x2="191.789" y2="40.8421" stroke="black" stroke-width="7.15789" stroke-linecap="round"/>
<mask id="path-3-inside-1_111_25" fill="white">
<path d="M86.2106 21.1579C86.2106 17.2047 89.4153 14 93.3685 14H139C142.953 14 146.158 17.2047 146.158 21.1579V37.2632C146.158 41.2164 142.953 44.4211 139 44.4211H93.3685C89.4153 44.4211 86.2106 41.2164 86.2106 37.2632V21.1579Z"/>
</mask>
<path d="M86.2106 21.1579C86.2106 17.2047 89.4153 14 93.3685 14H139C142.953 14 146.158 17.2047 146.158 21.1579V37.2632C146.158 41.2164 142.953 44.4211 139 44.4211H93.3685C89.4153 44.4211 86.2106 41.2164 86.2106 37.2632V21.1579Z" fill="white"/>
<path d="M79.0527 21.1579C79.0527 13.2515 85.4621 6.84211 93.3685 6.84211H139C146.906 6.84211 153.316 13.2515 153.316 21.1579H139H93.3685H79.0527ZM153.316 37.2632C153.316 45.1695 146.906 51.5789 139 51.5789H93.3685C85.4621 51.5789 79.0527 45.1695 79.0527 37.2632H93.3685H139H153.316ZM93.3685 51.5789C85.4621 51.5789 79.0527 45.1695 79.0527 37.2632V21.1579C79.0527 13.2515 85.4621 6.84211 93.3685 6.84211V21.1579V37.2632V51.5789ZM139 6.84211C146.906 6.84211 153.316 13.2515 153.316 21.1579V37.2632C153.316 45.1695 146.906 51.5789 139 51.5789V37.2632V21.1579V6.84211Z" fill="black" mask="url(#path-3-inside-1_111_25)"/>
<rect x="86.2106" y="67.6842" width="7.15789" height="119.895" rx="3.57895" fill="black"/>
<rect x="139" y="67.6842" width="7.15789" height="119.895" rx="3.57895" fill="black"/>
<rect x="112.158" y="67.6842" width="7.15789" height="119.895" rx="3.57895" fill="black"/>
</svg>
