<svg width="232" height="232" viewBox="0 0 232 232" fill="none" xmlns="http://www.w3.org/2000/svg">
<g clip-path="url(#clip0_111_11)">
<path d="M24.724 159.293C23.2087 157.739 23.2086 155.261 24.7238 153.707L54.7681 122.9C56.3242 121.304 58.8842 121.288 60.4602 122.864L102 164.404L117.985 178.366C119.65 179.82 119.819 182.349 118.364 184.013L104.695 199.634C103.936 200.502 102.838 201 101.685 201L67.0901 201C66.0119 201 64.9794 200.565 64.2266 199.793L24.724 159.293Z" fill="white"/>
<rect x="60" y="118.042" width="124.51" height="87.3824" rx="4" transform="rotate(-45 60 118.042)" fill="#C4C4C4"/>
<path d="M13.3729 199.646L64.0824 199.706M153.238 199.811L103.641 199.752M103.641 199.752L64.0824 199.706M103.641 199.752L122.12 181.273M64.0824 199.706C64.0824 199.706 51.7738 187.397 36.0493 171.672C20.3248 155.948 20.3248 155.948 40.0805 136.192C59.8362 116.437 58.5602 117.713 58.5602 117.713M122.12 181.273C122.12 181.273 183.694 119.699 196.439 106.954C209.185 94.2084 211.833 91.5602 203.226 82.9531C194.619 74.346 164.494 44.2212 156.383 36.1105C148.273 27.9999 145.293 30.9792 132.879 43.3935C120.465 55.8077 58.5602 117.713 58.5602 117.713M122.12 181.273L58.5602 117.713" stroke="black" stroke-width="8" stroke-linecap="round" stroke-linejoin="round"/>
</g>
<defs>
<clipPath id="clip0_111_11">
<rect width="232" height="232" fill="white"/>
</clipPath>
</defs>
</svg>
